<mxfile host="app.diagrams.net" agent="Mozilla/5.0 (Windows NT 10.0; Win64; x64) AppleWebKit/537.36 (KHTML, like Gecko) Chrome/131.0.0.0 Safari/537.36" version="24.9.3">
  <diagram name="페이지-1" id="4f8Go6m5zQmymInyhVhL">
    <mxGraphModel dx="1436" dy="1361" grid="0" gridSize="10" guides="1" tooltips="1" connect="1" arrows="1" fold="1" page="0" pageScale="1" pageWidth="1169" pageHeight="827" math="0" shadow="0">
      <root>
        <mxCell id="0" />
        <mxCell id="1" parent="0" />
        <mxCell id="Nb0FSfAw4Xf-qcLVnEjR-48" value="" style="shape=image;verticalLabelPosition=bottom;labelBackgroundColor=default;verticalAlign=top;aspect=fixed;imageAspect=0;image=https://puwanai.com/images/20220406225713_49714.png;" vertex="1" parent="1">
          <mxGeometry x="480.73" y="279" width="238.09" height="125" as="geometry" />
        </mxCell>
        <mxCell id="Nb0FSfAw4Xf-qcLVnEjR-1" value="" style="rounded=0;whiteSpace=wrap;html=1;" vertex="1" parent="1">
          <mxGeometry x="11" y="-67" width="140" height="208" as="geometry" />
        </mxCell>
        <mxCell id="Nb0FSfAw4Xf-qcLVnEjR-2" value="&lt;b&gt;&lt;font style=&quot;font-size: 22px;&quot;&gt;판매자&lt;/font&gt;&lt;/b&gt;" style="rounded=0;whiteSpace=wrap;html=1;fillColor=#E3E3E3;strokeColor=#666666;fontColor=#333333;" vertex="1" parent="1">
          <mxGeometry x="21" y="-96" width="120" height="60" as="geometry" />
        </mxCell>
        <mxCell id="Nb0FSfAw4Xf-qcLVnEjR-3" value="" style="rounded=0;whiteSpace=wrap;html=1;" vertex="1" parent="1">
          <mxGeometry x="11" y="234" width="140" height="208" as="geometry" />
        </mxCell>
        <mxCell id="Nb0FSfAw4Xf-qcLVnEjR-4" value="&lt;b&gt;&lt;font style=&quot;font-size: 22px;&quot;&gt;구매자&lt;/font&gt;&lt;/b&gt;" style="rounded=0;whiteSpace=wrap;html=1;fillColor=#E3E3E3;" vertex="1" parent="1">
          <mxGeometry x="21" y="205" width="120" height="60" as="geometry" />
        </mxCell>
        <mxCell id="Nb0FSfAw4Xf-qcLVnEjR-5" value="" style="rounded=0;whiteSpace=wrap;html=1;" vertex="1" parent="1">
          <mxGeometry x="255" y="-67" width="140" height="208" as="geometry" />
        </mxCell>
        <mxCell id="Nb0FSfAw4Xf-qcLVnEjR-6" value="&lt;b&gt;&lt;font style=&quot;font-size: 22px;&quot;&gt;관리자&lt;/font&gt;&lt;/b&gt;" style="rounded=0;whiteSpace=wrap;html=1;fillColor=#E3E3E3;" vertex="1" parent="1">
          <mxGeometry x="265" y="-96" width="120" height="60" as="geometry" />
        </mxCell>
        <mxCell id="Nb0FSfAw4Xf-qcLVnEjR-33" value="" style="edgeStyle=none;curved=1;rounded=0;orthogonalLoop=1;jettySize=auto;html=1;fontSize=12;startSize=8;endSize=8;exitX=1;exitY=0.5;exitDx=0;exitDy=0;entryX=0;entryY=0.5;entryDx=0;entryDy=0;startArrow=openThin;startFill=0;" edge="1" parent="1" source="Nb0FSfAw4Xf-qcLVnEjR-5" target="Nb0FSfAw4Xf-qcLVnEjR-11">
          <mxGeometry relative="1" as="geometry">
            <mxPoint x="410" y="75.00000000000023" as="sourcePoint" />
            <mxPoint x="543" y="75.00000000000023" as="targetPoint" />
          </mxGeometry>
        </mxCell>
        <mxCell id="Nb0FSfAw4Xf-qcLVnEjR-7" value="" style="rounded=0;whiteSpace=wrap;html=1;" vertex="1" parent="1">
          <mxGeometry x="255" y="234" width="140" height="208" as="geometry" />
        </mxCell>
        <mxCell id="Nb0FSfAw4Xf-qcLVnEjR-8" value="&lt;span style=&quot;font-size: 22px;&quot;&gt;&lt;b&gt;User Web&lt;/b&gt;&lt;/span&gt;" style="rounded=0;whiteSpace=wrap;html=1;gradientColor=none;fillColor=#E3E3E3;" vertex="1" parent="1">
          <mxGeometry x="265" y="205" width="120" height="60" as="geometry" />
        </mxCell>
        <mxCell id="Nb0FSfAw4Xf-qcLVnEjR-9" value="" style="rounded=0;whiteSpace=wrap;html=1;fillColor=none;" vertex="1" parent="1">
          <mxGeometry x="528" y="234" width="140" height="208" as="geometry" />
        </mxCell>
        <mxCell id="Nb0FSfAw4Xf-qcLVnEjR-10" value="&lt;span style=&quot;font-size: 22px;&quot;&gt;&lt;b&gt;Server&lt;/b&gt;&lt;/span&gt;" style="rounded=0;whiteSpace=wrap;html=1;fillColor=#E3E3E3;" vertex="1" parent="1">
          <mxGeometry x="538" y="205" width="120" height="60" as="geometry" />
        </mxCell>
        <mxCell id="Nb0FSfAw4Xf-qcLVnEjR-11" value="" style="rounded=0;whiteSpace=wrap;html=1;" vertex="1" parent="1">
          <mxGeometry x="508" y="-67" width="165" height="208" as="geometry" />
        </mxCell>
        <mxCell id="Nb0FSfAw4Xf-qcLVnEjR-12" value="&lt;span style=&quot;font-size: 22px;&quot;&gt;&lt;b&gt;Management&lt;/b&gt;&lt;/span&gt;&lt;div&gt;&lt;span style=&quot;font-size: 22px;&quot;&gt;&lt;b&gt;Web&lt;/b&gt;&lt;/span&gt;&lt;/div&gt;" style="rounded=0;whiteSpace=wrap;html=1;fillColor=#E3E3E3;" vertex="1" parent="1">
          <mxGeometry x="518" y="-96" width="146" height="60" as="geometry" />
        </mxCell>
        <mxCell id="Nb0FSfAw4Xf-qcLVnEjR-13" value="" style="rounded=0;whiteSpace=wrap;html=1;" vertex="1" parent="1">
          <mxGeometry x="495" y="526" width="206" height="208" as="geometry" />
        </mxCell>
        <mxCell id="Nb0FSfAw4Xf-qcLVnEjR-14" value="&lt;span style=&quot;font-size: 22px;&quot;&gt;&lt;b&gt;Server&lt;/b&gt;&lt;/span&gt;&lt;div&gt;&lt;span style=&quot;font-size: 22px;&quot;&gt;&lt;b&gt;Database&lt;/b&gt;&lt;/span&gt;&lt;/div&gt;" style="rounded=0;whiteSpace=wrap;html=1;fillColor=#E3E3E3;" vertex="1" parent="1">
          <mxGeometry x="538" y="497" width="120" height="60" as="geometry" />
        </mxCell>
        <mxCell id="Nb0FSfAw4Xf-qcLVnEjR-15" value="" style="rounded=0;whiteSpace=wrap;html=1;" vertex="1" parent="1">
          <mxGeometry x="746" y="234" width="332" height="208" as="geometry" />
        </mxCell>
        <mxCell id="Nb0FSfAw4Xf-qcLVnEjR-16" value="&lt;span style=&quot;font-size: 22px;&quot;&gt;&lt;b&gt;AI Model&lt;/b&gt;&lt;/span&gt;" style="rounded=0;whiteSpace=wrap;html=1;fillColor=#E3E3E3;" vertex="1" parent="1">
          <mxGeometry x="852" y="202" width="120" height="60" as="geometry" />
        </mxCell>
        <mxCell id="Nb0FSfAw4Xf-qcLVnEjR-17" value="" style="shape=actor;whiteSpace=wrap;html=1;" vertex="1" parent="1">
          <mxGeometry x="287" y="-16" width="76" height="115" as="geometry" />
        </mxCell>
        <mxCell id="Nb0FSfAw4Xf-qcLVnEjR-18" value="" style="shape=actor;whiteSpace=wrap;html=1;" vertex="1" parent="1">
          <mxGeometry x="25" y="-23" width="49" height="61" as="geometry" />
        </mxCell>
        <mxCell id="Nb0FSfAw4Xf-qcLVnEjR-19" value="" style="shape=actor;whiteSpace=wrap;html=1;" vertex="1" parent="1">
          <mxGeometry x="88" y="-23" width="49" height="61" as="geometry" />
        </mxCell>
        <mxCell id="Nb0FSfAw4Xf-qcLVnEjR-20" value="" style="shape=actor;whiteSpace=wrap;html=1;" vertex="1" parent="1">
          <mxGeometry x="88" y="47.5" width="49" height="61" as="geometry" />
        </mxCell>
        <mxCell id="Nb0FSfAw4Xf-qcLVnEjR-21" value="" style="shape=actor;whiteSpace=wrap;html=1;" vertex="1" parent="1">
          <mxGeometry x="25" y="47.5" width="49" height="61" as="geometry" />
        </mxCell>
        <mxCell id="Nb0FSfAw4Xf-qcLVnEjR-26" value="" style="shape=actor;whiteSpace=wrap;html=1;" vertex="1" parent="1">
          <mxGeometry x="25" y="279" width="49" height="61" as="geometry" />
        </mxCell>
        <mxCell id="Nb0FSfAw4Xf-qcLVnEjR-27" value="" style="shape=actor;whiteSpace=wrap;html=1;" vertex="1" parent="1">
          <mxGeometry x="88" y="279" width="49" height="61" as="geometry" />
        </mxCell>
        <mxCell id="Nb0FSfAw4Xf-qcLVnEjR-28" value="" style="shape=actor;whiteSpace=wrap;html=1;" vertex="1" parent="1">
          <mxGeometry x="88" y="349.5" width="49" height="61" as="geometry" />
        </mxCell>
        <mxCell id="Nb0FSfAw4Xf-qcLVnEjR-29" value="" style="shape=actor;whiteSpace=wrap;html=1;" vertex="1" parent="1">
          <mxGeometry x="25" y="349.5" width="49" height="61" as="geometry" />
        </mxCell>
        <mxCell id="Nb0FSfAw4Xf-qcLVnEjR-31" value="" style="edgeStyle=elbowEdgeStyle;elbow=horizontal;endArrow=classic;html=1;curved=0;rounded=0;endSize=8;startSize=8;fontSize=12;exitX=1;exitY=0.5;exitDx=0;exitDy=0;entryX=0;entryY=0.5;entryDx=0;entryDy=0;startArrow=classicThin;startFill=1;" edge="1" parent="1" source="Nb0FSfAw4Xf-qcLVnEjR-1" target="Nb0FSfAw4Xf-qcLVnEjR-7">
          <mxGeometry width="50" height="50" relative="1" as="geometry">
            <mxPoint x="187" y="27" as="sourcePoint" />
            <mxPoint x="237" y="-23" as="targetPoint" />
          </mxGeometry>
        </mxCell>
        <mxCell id="Nb0FSfAw4Xf-qcLVnEjR-32" value="" style="edgeStyle=elbowEdgeStyle;elbow=horizontal;endArrow=classic;html=1;curved=0;rounded=0;endSize=8;startSize=8;fontSize=12;exitX=1;exitY=0.5;exitDx=0;exitDy=0;entryX=0;entryY=0.5;entryDx=0;entryDy=0;startArrow=classicThin;startFill=1;" edge="1" parent="1" source="Nb0FSfAw4Xf-qcLVnEjR-3" target="Nb0FSfAw4Xf-qcLVnEjR-7">
          <mxGeometry width="50" height="50" relative="1" as="geometry">
            <mxPoint x="94" y="271" as="sourcePoint" />
            <mxPoint x="198" y="572" as="targetPoint" />
          </mxGeometry>
        </mxCell>
        <mxCell id="Nb0FSfAw4Xf-qcLVnEjR-35" value="" style="shape=image;verticalLabelPosition=bottom;labelBackgroundColor=default;verticalAlign=top;aspect=fixed;imageAspect=0;image=https://cdn-icons-png.flaticon.com/512/5968/5968672.png;" vertex="1" parent="1">
          <mxGeometry x="298.77000000000004" y="281.5" width="56" height="56" as="geometry" />
        </mxCell>
        <mxCell id="Nb0FSfAw4Xf-qcLVnEjR-38" value="" style="shape=image;verticalLabelPosition=bottom;labelBackgroundColor=default;verticalAlign=top;aspect=fixed;imageAspect=0;image=https://upload.wikimedia.org/wikipedia/commons/thumb/a/a7/React-icon.svg/1200px-React-icon.svg.png;" vertex="1" parent="1">
          <mxGeometry x="295.21999999999997" y="365" width="59.55" height="53" as="geometry" />
        </mxCell>
        <mxCell id="Nb0FSfAw4Xf-qcLVnEjR-39" value="" style="shape=image;verticalLabelPosition=bottom;labelBackgroundColor=default;verticalAlign=top;aspect=fixed;imageAspect=0;image=https://cdn-icons-png.flaticon.com/512/5968/5968672.png;" vertex="1" parent="1">
          <mxGeometry x="565.5" y="-18" width="56" height="56" as="geometry" />
        </mxCell>
        <mxCell id="Nb0FSfAw4Xf-qcLVnEjR-41" value="" style="shape=image;verticalLabelPosition=bottom;labelBackgroundColor=default;verticalAlign=top;aspect=fixed;imageAspect=0;image=https://upload.wikimedia.org/wikipedia/commons/thumb/a/a7/React-icon.svg/1200px-React-icon.svg.png;" vertex="1" parent="1">
          <mxGeometry x="563.72" y="61" width="59.55" height="53" as="geometry" />
        </mxCell>
        <mxCell id="Nb0FSfAw4Xf-qcLVnEjR-50" value="" style="shape=image;verticalLabelPosition=bottom;labelBackgroundColor=default;verticalAlign=top;aspect=fixed;imageAspect=0;image=https://i.namu.wiki/i/Qv4yFu17PAWT-YrNG1JYiDazAtHlfRB-CYoqI0XTn11frDESitkXGG_kmzn6oimJM-52EtCUvNzM-VT_z-HWVmtJW0Ke4MLKtkWBjo9-kjRS1Hh0sIHLouGnIsZ12MV-JTeBQw_YhHx05yanhJHLWg.svg;" vertex="1" parent="1">
          <mxGeometry x="755.9989717371325" y="306.0025729549633" width="300" height="81" as="geometry" />
        </mxCell>
        <mxCell id="Nb0FSfAw4Xf-qcLVnEjR-51" value="" style="shape=image;verticalLabelPosition=bottom;labelBackgroundColor=default;verticalAlign=top;aspect=fixed;imageAspect=0;image=https://velog.velcdn.com/images/leo3179/post/49f60233-840e-435d-a175-2d63d725c403/image.png;" vertex="1" parent="1">
          <mxGeometry x="525" y="571" width="137" height="137" as="geometry" />
        </mxCell>
        <mxCell id="Nb0FSfAw4Xf-qcLVnEjR-53" value="" style="edgeStyle=none;curved=1;rounded=0;orthogonalLoop=1;jettySize=auto;html=1;fontSize=12;startSize=8;endSize=8;exitX=1;exitY=0.5;exitDx=0;exitDy=0;entryX=0;entryY=0.5;entryDx=0;entryDy=0;startArrow=openThin;startFill=0;" edge="1" parent="1">
          <mxGeometry relative="1" as="geometry">
            <mxPoint x="392" y="340" as="sourcePoint" />
            <mxPoint x="525" y="340" as="targetPoint" />
          </mxGeometry>
        </mxCell>
        <mxCell id="Nb0FSfAw4Xf-qcLVnEjR-54" value="" style="edgeStyle=none;curved=1;rounded=0;orthogonalLoop=1;jettySize=auto;html=1;fontSize=12;startSize=8;endSize=8;exitX=1;exitY=0.5;exitDx=0;exitDy=0;startArrow=openThin;startFill=0;" edge="1" parent="1">
          <mxGeometry relative="1" as="geometry">
            <mxPoint x="668" y="337.41" as="sourcePoint" />
            <mxPoint x="749" y="337" as="targetPoint" />
          </mxGeometry>
        </mxCell>
        <mxCell id="Nb0FSfAw4Xf-qcLVnEjR-55" value="" style="edgeStyle=none;curved=1;rounded=0;orthogonalLoop=1;jettySize=auto;html=1;fontSize=12;startSize=8;endSize=8;exitX=0.5;exitY=1;exitDx=0;exitDy=0;startArrow=openThin;startFill=0;entryX=0.5;entryY=0;entryDx=0;entryDy=0;" edge="1" parent="1" source="Nb0FSfAw4Xf-qcLVnEjR-9" target="Nb0FSfAw4Xf-qcLVnEjR-14">
          <mxGeometry relative="1" as="geometry">
            <mxPoint x="668" y="497.41" as="sourcePoint" />
            <mxPoint x="749" y="497" as="targetPoint" />
          </mxGeometry>
        </mxCell>
      </root>
    </mxGraphModel>
  </diagram>
</mxfile>
